<?xml version="1.0" encoding="utf-8"?>
<!-- Generator: Adobe Illustrator 26.5.0, SVG Export Plug-In . SVG Version: 6.00 Build 0)  -->
<svg version="1.1" id="Layer_1" xmlns="http://www.w3.org/2000/svg" xmlns:xlink="http://www.w3.org/1999/xlink" x="0px" y="0px"
	 viewBox="100 32 950 65" style="enable-background:new 0 0 950 65;" xml:space="preserve">
<style type="text/css">
	.st0{fill-rule:evenodd;clip-rule:evenodd;fill:#ED1C24;}
	.st1{fill:#231F20;}
</style>
<g>
	<g>
		<path class="st0" d="M156.2,40.1c0,0-3.2,6.2-3.7,6.9c-0.4,0.9-0.9,0.9-1.5,0.4c-0.9-0.4-3.5-1.9-3.5-1.9s2.4,10.3,2.4,11.2
			c0.2,0.9-0.6,1.5-1.5,0.9c-0.2-0.2-4.8-5.4-4.8-5.4s-1.1,2.4-1.3,2.8c-0.2,0.4-0.4,0.9-1.1,0.6c-0.9-0.2-5-1.1-5-1.1
			s1.5,5.1,1.7,5.8c0.2,0.5,0.4,1.1-0.4,1.5l-1.5,0.6c0,0,8.9,7.8,9.1,8c0.4,0.4,0.9,0.6,0.4,1.9c-0.4,1.3-0.9,3-0.9,3
			s8.2-1.7,9.1-1.9c0.8-0.1,1.6,0.2,1.6,1.1s-0.5,9.7-0.5,9.7h2.6c0,0-0.5-8.9-0.5-9.7s0.8-1.2,1.6-1.1c0.9,0.2,9.1,1.9,9.1,1.9
			s-0.4-1.7-0.9-3c-0.4-1.3,0-1.5,0.4-1.9c0.2-0.2,9.1-8,9.1-8l-1.5-0.6c-0.9-0.4-0.6-1-0.4-1.5c0.2-0.6,1.7-5.8,1.7-5.8
			s-4.1,0.9-5,1.1c-0.6,0.2-0.9-0.2-1.1-0.6c-0.2-0.4-1.3-2.8-1.3-2.8s-4.5,5.2-4.8,5.4c-0.9,0.6-1.7,0-1.5-0.9
			c0-0.9,2.4-11.2,2.4-11.2s-2.6,1.5-3.5,1.9c-0.6,0.4-1.1,0.4-1.5-0.4C159.5,46.4,156.2,40.1,156.2,40.1L156.2,40.1L156.2,40.1z"/>
		<polygon class="st0" points="130.1,88.2 130.1,36.2 103.9,36.2 103.9,88.2 130.1,88.2 		"/>
		<polygon class="st0" points="208.5,88.2 208.5,36.2 182.4,36.2 182.4,88.2 208.5,88.2 		"/>
	</g>
	<g>
		<path class="st1" d="M254.4,36.3h14.7v2.4h-11.9v6.8h11v2.4h-11v7.4h11.9v2.4h-14.8L254.4,36.3L254.4,36.3z"/>
		<path class="st1" d="M271.9,42.1h2.4v2.4h0.1c1.1-1.9,2.8-2.8,5-2.8c4,0,5.3,2.3,5.3,5.6v10.1h-2.5V47.1c0-1.9-1.2-3.1-3.1-3.1
			c-3.1,0-4.6,2.1-4.6,4.8v8.7h-2.5L271.9,42.1L271.9,42.1z"/>
		<path class="st1" d="M294.8,57.5h-2.7l-5.7-15.4h2.8l4.3,12.8h0.1l4.2-12.8h2.6L294.8,57.5z"/>
		<path class="st1" d="M305.3,39.4h-2.5v-3.1h2.5V39.4z M302.7,42.1h2.5v15.4h-2.5V42.1z"/>
		<path class="st1" d="M309,42.1h2.4v3.2h0.1c1.2-2.5,2.9-3.7,5.7-3.6v2.7c-4.1,0-5.6,2.3-5.6,6.2v6.9H309V42.1z"/>
		<path class="st1" d="M325.4,41.8c4.9,0,7.5,3.5,7.5,8.1s-2.6,8-7.5,8s-7.5-3.5-7.5-8S320.6,41.8,325.4,41.8L325.4,41.8z
			 M325.4,55.7c2.6,0,4.8-2.1,4.8-5.8s-2.1-5.8-4.8-5.8s-4.8,2.1-4.8,5.8S322.8,55.7,325.4,55.7z"/>
		<path class="st1" d="M335.8,42.1h2.4v2.4h0.1c1.1-1.9,2.8-2.8,5-2.8c4,0,5.3,2.3,5.3,5.6v10.1H346V47.1c0-1.9-1.2-3.1-3.1-3.1
			c-3.1,0-4.6,2.1-4.6,4.8v8.7h-2.5L335.8,42.1L335.8,42.1z"/>
		<path class="st1" d="M352.3,42.1h2.4v2.4h0.1c1.1-1.9,2.8-2.8,5-2.8c4,0,5.3,2.3,5.3,5.6v10.1h-2.5V47.1c0-1.9-1.2-3.1-3.1-3.1
			c-3.1,0-4.6,2.1-4.6,4.8v8.7h-2.5L352.3,42.1L352.3,42.1z"/>
		<path class="st1" d="M381.8,52.6c-0.7,3.4-3.1,5.2-6.6,5.2c-4.9,0-7.2-3.4-7.4-8.1c0-4.6,3-8,7.2-8c5.5,0,7.1,5.1,7,8.8h-11.5
			c-0.1,2.7,1.4,5.1,4.8,5.1c2.1,0,3.5-1,4-3H381.8z M379.4,48.4c-0.1-2.4-1.9-4.4-4.4-4.4c-2.6,0-4.2,2-4.4,4.4H379.4L379.4,48.4z"
			/>
		<path class="st1" d="M384.8,42.1h2.4v2.3h0.1c1.1-1.7,2.9-2.6,5-2.6c1.9,0,3.6,0.7,4.2,2.6c1-1.6,2.9-2.6,4.8-2.6
			c3.1,0,5.1,1.3,5.1,4.5v11.3h-2.5V47.4c0-1.9-0.5-3.4-3-3.4s-4,1.6-4,3.9v9.6h-2.5V47.4c0-2-0.6-3.4-2.9-3.4c-3,0-4.1,2.8-4.1,3.9
			v9.6h-2.5L384.8,42.1L384.8,42.1z"/>
		<path class="st1" d="M423.2,52.6c-0.7,3.4-3.1,5.2-6.6,5.2c-4.9,0-7.2-3.4-7.4-8.1c0-4.6,3-8,7.2-8c5.5,0,7.1,5.1,7,8.8H412
			c-0.1,2.7,1.4,5.1,4.8,5.1c2.1,0,3.5-1,4-3H423.2z M420.8,48.4c-0.1-2.4-1.9-4.4-4.4-4.4c-2.6,0-4.2,2-4.4,4.4H420.8L420.8,48.4z"
			/>
		<path class="st1" d="M426.2,42.1h2.4v2.4h0.1c1.1-1.9,2.8-2.8,5-2.8c4,0,5.3,2.3,5.3,5.6v10.1h-2.5V47.1c0-1.9-1.2-3.1-3.1-3.1
			c-3.1,0-4.6,2.1-4.6,4.8v8.7h-2.5L426.2,42.1L426.2,42.1z"/>
		<path class="st1" d="M446,42.1h3.1v2.2H446v9.6c0,1.2,0.3,1.4,1.9,1.4h1.2v2.2h-1.9c-2.6,0-3.7-0.5-3.7-3.4v-9.8h-2.6v-2.2h2.6
			v-4.6h2.5L446,42.1L446,42.1z"/>
		<path class="st1" d="M473.3,52.6c-0.7,3.4-3.1,5.2-6.6,5.2c-4.9,0-7.2-3.4-7.4-8.1c0-4.6,3-8,7.2-8c5.5,0,7.1,5.1,7,8.8h-11.5
			c-0.1,2.7,1.4,5.1,4.8,5.1c2.1,0,3.5-1,4-3H473.3z M470.9,48.4c-0.1-2.4-1.9-4.4-4.4-4.4c-2.6,0-4.2,2-4.4,4.4H470.9L470.9,48.4z"
			/>
		<path class="st1" d="M479.6,42.1h3.1v2.2h-3.1v9.6c0,1.2,0.3,1.4,1.9,1.4h1.2v2.2h-1.9c-2.6,0-3.7-0.5-3.7-3.4v-9.8h-2.6v-2.2h2.6
			v-4.6h2.5L479.6,42.1L479.6,42.1z"/>
		<path class="st1" d="M269.4,73.3c-0.6-3-3-4.5-6-4.5c-5.1,0-7.2,4.2-7.2,8.6c0,4.9,2.1,8.9,7.2,8.9c3.7,0,5.9-2.6,6.1-6.1h2.8
			c-0.5,5.3-3.8,8.5-9.2,8.5c-6.6,0-9.8-4.9-9.8-11.1s3.5-11.2,10.1-11.2c4.4,0,8.1,2.4,8.8,6.9H269.4z"/>
		<path class="st1" d="M275.4,66.9h2.5v8.1h0.1c0.8-1.9,3-2.6,4.9-2.6c4,0,5.3,2.3,5.3,5.6v10.1h-2.5V77.8c0-1.9-1.2-3.1-3.1-3.1
			c-3.1,0-4.6,2.1-4.6,4.8v8.7h-2.5L275.4,66.9L275.4,66.9z"/>
		<path class="st1" d="M305.5,88.1c-0.5,0.3-1,0.4-1.8,0.4c-1.3,0-2.1-0.7-2.1-2.4c-1.4,1.6-3.3,2.4-5.4,2.4c-2.8,0-5.1-1.2-5.1-4.3
			c0-3.5,2.6-4.2,5.2-4.7c2.8-0.5,5.2-0.4,5.2-2.3c0-2.2-1.8-2.6-3.4-2.6c-2.1,0-3.7,0.6-3.8,2.9h-2.5c0.1-3.8,3.1-5.1,6.5-5.1
			c2.8,0,5.8,0.6,5.8,4.2v7.9c0,1.2,0,1.7,0.8,1.7c0.2,0,0.5,0,0.8-0.1L305.5,88.1L305.5,88.1z M301.4,80.2c-1,0.7-2.9,0.7-4.6,1
			c-1.7,0.3-3.1,0.9-3.1,2.8c0,1.7,1.4,2.3,3,2.3c3.3,0,4.7-2.1,4.7-3.5L301.4,80.2L301.4,80.2z"/>
		<path class="st1" d="M307.9,72.8h2.4v2.4h0.1c1.1-1.9,2.8-2.8,5-2.8c4,0,5.3,2.3,5.3,5.6v10.1h-2.5V77.8c0-1.9-1.2-3.1-3.1-3.1
			c-3.1,0-4.6,2.1-4.6,4.8v8.7h-2.5L307.9,72.8L307.9,72.8z"/>
		<path class="st1" d="M337.6,86.9c0,5-2.3,7.6-7.1,7.6c-2.9,0-6.2-1.2-6.4-4.5h2.5c0.1,1.9,2.3,2.5,4,2.5c3.3,0,4.6-2.4,4.6-5.8v-1
			h-0.1c-0.8,1.9-2.9,2.8-4.8,2.8c-4.6,0-6.9-3.6-6.9-7.8c0-3.6,1.8-8.1,7.1-8.1c1.9,0,3.7,0.9,4.6,2.6h0v-2.2h2.4L337.6,86.9
			L337.6,86.9z M335.1,80.2c0-2.7-1.2-5.5-4.4-5.5s-4.6,2.6-4.6,5.6c0,2.8,1,5.9,4.4,5.9S335.1,83.1,335.1,80.2L335.1,80.2z"/>
		<path class="st1" d="M354.5,83.3c-0.7,3.4-3.1,5.2-6.6,5.2c-4.9,0-7.2-3.4-7.4-8.1c0-4.6,3-8,7.2-8c5.5,0,7.1,5.1,7,8.8h-11.5
			c-0.1,2.7,1.4,5.1,4.8,5.1c2.1,0,3.5-1,4-3L354.5,83.3L354.5,83.3z M352,79c-0.1-2.4-1.9-4.4-4.4-4.4c-2.6,0-4.2,2-4.4,4.4H352
			L352,79z"/>
		<path class="st1" d="M357.4,72.8h2.4V75h0.1c1.1-1.7,2.9-2.6,5-2.6c1.9,0,3.6,0.8,4.2,2.6c1-1.6,2.9-2.6,4.8-2.6
			c3.1,0,5.1,1.3,5.1,4.5v11.3h-2.5V78.1c0-1.9-0.5-3.4-3-3.4s-4,1.6-4,3.9v9.6h-2.5V78.1c0-2-0.6-3.4-2.9-3.4c-3,0-4.1,2.8-4.1,3.9
			v9.6h-2.5L357.4,72.8L357.4,72.8z"/>
		<path class="st1" d="M395.8,83.3c-0.7,3.4-3.1,5.2-6.6,5.2c-4.9,0-7.2-3.4-7.4-8.1c0-4.6,3-8,7.2-8c5.5,0,7.1,5.1,7,8.8h-11.5
			c-0.1,2.7,1.4,5.1,4.8,5.1c2.1,0,3.5-1,4-3L395.8,83.3L395.8,83.3z M393.4,79c-0.1-2.4-1.9-4.4-4.4-4.4c-2.6,0-4.2,2-4.4,4.4
			H393.4L393.4,79z"/>
		<path class="st1" d="M398.8,72.8h2.4v2.4h0.1c1.1-1.9,2.8-2.8,5-2.8c4,0,5.3,2.3,5.3,5.6v10.1H409V77.8c0-1.9-1.2-3.1-3.1-3.1
			c-3.1,0-4.6,2.1-4.6,4.8v8.7h-2.5L398.8,72.8L398.8,72.8z"/>
		<path class="st1" d="M418.7,72.8h3.1V75h-3.1v9.6c0,1.2,0.3,1.4,1.9,1.4h1.2v2.2h-1.9c-2.6,0-3.7-0.5-3.7-3.4V75h-2.6v-2.2h2.6
			v-4.6h2.5L418.7,72.8L418.7,72.8z"/>
		<path class="st1" d="M443.3,77.7c-0.4-1.9-1.7-3.1-3.8-3.1c-3.7,0-4.8,2.9-4.8,6c0,2.8,1.3,5.6,4.5,5.6c2.4,0,3.9-1.4,4.2-3.8h2.6
			c-0.6,3.8-2.9,6-6.8,6c-4.7,0-7.2-3.3-7.2-7.9s2.4-8.2,7.3-8.2c3.5,0,6.3,1.6,6.6,5.3H443.3L443.3,77.7z"/>
		<path class="st1" d="M448.9,66.9h2.5v21.3h-2.5V66.9z"/>
		<path class="st1" d="M457.7,70h-2.5v-3.1h2.5V70z M455.2,72.8h2.5v15.4h-2.5V72.8z"/>
		<path class="st1" d="M461.5,72.8h2.4V75h0.1c1.1-1.7,2.9-2.6,5-2.6c1.9,0,3.6,0.8,4.2,2.6c1-1.6,2.9-2.6,4.8-2.6
			c3.1,0,5.1,1.3,5.1,4.5v11.3h-2.5V78.1c0-1.9-0.5-3.4-3-3.4s-4,1.6-4,3.9v9.6H471V78.1c0-2-0.6-3.4-2.9-3.4c-3,0-4.1,2.8-4.1,3.9
			v9.6h-2.5L461.5,72.8L461.5,72.8z"/>
		<path class="st1" d="M500.5,88.1c-0.5,0.3-1,0.4-1.8,0.4c-1.3,0-2.1-0.7-2.1-2.4c-1.4,1.6-3.3,2.4-5.4,2.4c-2.8,0-5.1-1.2-5.1-4.3
			c0-3.5,2.6-4.2,5.2-4.7c2.8-0.5,5.2-0.4,5.2-2.3c0-2.2-1.8-2.6-3.4-2.6c-2.1,0-3.7,0.6-3.8,2.9h-2.5c0.1-3.8,3.1-5.1,6.5-5.1
			c2.8,0,5.8,0.6,5.8,4.2v7.9c0,1.2,0,1.7,0.8,1.7c0.2,0,0.5,0,0.8-0.1L500.5,88.1L500.5,88.1z M496.4,80.2c-1,0.7-2.9,0.7-4.6,1
			c-1.7,0.3-3.1,0.9-3.1,2.8c0,1.7,1.4,2.3,3,2.3c3.3,0,4.7-2.1,4.7-3.5V80.2z"/>
		<path class="st1" d="M506.2,72.8h3.1V75h-3.1v9.6c0,1.2,0.3,1.4,1.9,1.4h1.2v2.2h-1.9c-2.6,0-3.7-0.5-3.7-3.4V75h-2.6v-2.2h2.6
			v-4.6h2.5L506.2,72.8L506.2,72.8z"/>
		<path class="st1" d="M514.5,70h-2.5v-3.1h2.5V70z M511.9,72.8h2.5v15.4h-2.5V72.8z"/>
		<path class="st1" d="M532,94.1h-2.5v-8h-0.1c-0.8,1.7-2.8,2.4-4.9,2.4c-4.7,0-7.1-3.8-7.1-8.1s2.3-8,7-8c1.6,0,3.8,0.6,5,2.4h0.1
			v-2.1h2.5V94.1z M524.9,86.3c3.4,0,4.7-2.9,4.7-5.8c0-3-1.4-5.8-4.8-5.8s-4.6,2.9-4.6,5.9S521.6,86.3,524.9,86.3L524.9,86.3z"/>
		<path class="st1" d="M548.5,88.2h-2.4v-2.4h-0.1c-1.1,1.9-2.8,2.8-5,2.8c-4,0-5.3-2.3-5.3-5.6V72.8h2.5v10.4
			c0,1.9,1.2,3.1,3.1,3.1c3.1,0,4.6-2.1,4.6-4.8v-8.7h2.5L548.5,88.2L548.5,88.2z"/>
		<path class="st1" d="M565.4,83.3c-0.7,3.4-3.1,5.2-6.6,5.2c-4.9,0-7.2-3.4-7.4-8.1c0-4.6,3-8,7.2-8c5.5,0,7.1,5.1,7,8.8h-11.5
			c-0.1,2.7,1.4,5.1,4.8,5.1c2.1,0,3.5-1,4-3L565.4,83.3L565.4,83.3z M563,79c-0.1-2.4-1.9-4.4-4.4-4.4c-2.7,0-4.2,2-4.4,4.4H563
			L563,79z"/>
		<path class="st1" d="M591.9,73.3c-0.6-3-3-4.5-6-4.5c-5.1,0-7.2,4.2-7.2,8.6c0,4.9,2.1,8.9,7.2,8.9c3.7,0,5.9-2.6,6.1-6.1h2.8
			c-0.5,5.3-3.8,8.5-9.2,8.5c-6.6,0-9.8-4.9-9.8-11.1s3.5-11.2,10.1-11.2c4.4,0,8.1,2.4,8.8,6.9H591.9L591.9,73.3z"/>
		<path class="st1" d="M611.4,88.1c-0.5,0.3-1,0.4-1.8,0.4c-1.3,0-2.1-0.7-2.1-2.4c-1.4,1.6-3.3,2.4-5.4,2.4c-2.8,0-5.1-1.2-5.1-4.3
			c0-3.5,2.6-4.2,5.2-4.7c2.8-0.5,5.2-0.4,5.2-2.3c0-2.2-1.8-2.6-3.4-2.6c-2.1,0-3.7,0.6-3.8,2.9h-2.5c0.2-3.8,3.1-5.1,6.5-5.1
			c2.8,0,5.8,0.6,5.8,4.2v7.9c0,1.2,0,1.7,0.8,1.7c0.2,0,0.5,0,0.8-0.1V88.1L611.4,88.1z M607.3,80.2c-1,0.7-2.9,0.7-4.6,1
			c-1.7,0.3-3.1,0.9-3.1,2.8c0,1.7,1.4,2.3,3,2.3c3.3,0,4.7-2.1,4.7-3.5V80.2z"/>
		<path class="st1" d="M613.8,72.8h2.4v2.4h0.1c1.1-1.9,2.8-2.8,5-2.8c4,0,5.3,2.3,5.3,5.6v10.1H624V77.8c0-1.9-1.2-3.1-3.1-3.1
			c-3.1,0-4.6,2.1-4.6,4.8v8.7h-2.5L613.8,72.8L613.8,72.8z"/>
		<path class="st1" d="M643.9,88.1c-0.5,0.3-1,0.4-1.8,0.4c-1.3,0-2.1-0.7-2.1-2.4c-1.4,1.6-3.3,2.4-5.4,2.4c-2.8,0-5.1-1.2-5.1-4.3
			c0-3.5,2.6-4.2,5.2-4.7c2.8-0.5,5.2-0.4,5.2-2.3c0-2.2-1.8-2.6-3.4-2.6c-2.1,0-3.7,0.6-3.8,2.9H630c0.2-3.8,3.1-5.1,6.5-5.1
			c2.8,0,5.8,0.6,5.8,4.2v7.9c0,1.2,0,1.7,0.8,1.7c0.2,0,0.5,0,0.8-0.1L643.9,88.1L643.9,88.1z M639.8,80.2c-1,0.7-2.9,0.7-4.6,1
			c-1.7,0.3-3.1,0.9-3.1,2.8c0,1.7,1.4,2.3,3,2.3c3.3,0,4.7-2.1,4.7-3.5L639.8,80.2L639.8,80.2z"/>
		<path class="st1" d="M659.8,88.2h-2.5v-2.1h-0.1c-0.8,1.7-2.8,2.4-4.9,2.4c-4.7,0-7.1-3.8-7.1-8.1s2.3-8,7-8c1.6,0,3.8,0.6,5,2.4
			h0.1v-7.9h2.5V88.2z M652.7,86.3c3.4,0,4.7-2.9,4.7-5.8c0-3-1.4-5.8-4.8-5.8s-4.6,2.9-4.6,5.9S649.4,86.3,652.7,86.3L652.7,86.3z"
			/>
		<path class="st1" d="M677.3,88.1c-0.5,0.3-1,0.4-1.8,0.4c-1.3,0-2.1-0.7-2.1-2.4c-1.4,1.6-3.3,2.4-5.4,2.4c-2.8,0-5.1-1.2-5.1-4.3
			c0-3.5,2.6-4.2,5.2-4.7c2.8-0.5,5.2-0.4,5.2-2.3c0-2.2-1.8-2.6-3.4-2.6c-2.1,0-3.7,0.6-3.8,2.9h-2.5c0.2-3.8,3.1-5.1,6.5-5.1
			c2.8,0,5.8,0.6,5.8,4.2v7.9c0,1.2,0,1.7,0.8,1.7c0.2,0,0.5,0,0.8-0.1V88.1L677.3,88.1z M673.2,80.2c-1,0.7-2.9,0.7-4.6,1
			c-1.7,0.3-3.1,0.9-3.1,2.8c0,1.7,1.4,2.3,3,2.3c3.3,0,4.7-2.1,4.7-3.5L673.2,80.2L673.2,80.2z"/>
	</g>
	<g>
		<path class="st1" d="M726.3,36.3H741v2.4h-11.8v6.8h11v2.4h-11v7.4h11.9v2.4h-14.8V36.3L726.3,36.3z"/>
		<path class="st1" d="M743.8,42.1h2.4v2.4h0.1c1.1-1.9,2.8-2.8,5-2.8c4,0,5.3,2.3,5.3,5.6v10.1H754V47.1c0-1.9-1.2-3.1-3.1-3.1
			c-3.1,0-4.6,2.1-4.6,4.8v8.7h-2.5L743.8,42.1L743.8,42.1z"/>
		<path class="st1" d="M766.7,57.5H764l-5.7-15.4h2.8l4.3,12.8h0.1l4.2-12.8h2.7L766.7,57.5L766.7,57.5z"/>
		<path class="st1" d="M777.1,39.4h-2.5v-3.1h2.5V39.4z M774.6,42.1h2.5v15.4h-2.5V42.1z"/>
		<path class="st1" d="M780.8,42.1h2.4v3.2h0.1c1.2-2.5,2.9-3.7,5.7-3.6v2.7c-4.1,0-5.6,2.3-5.6,6.2v6.9h-2.5L780.8,42.1L780.8,42.1
			z"/>
		<path class="st1" d="M797.3,41.8c4.9,0,7.5,3.5,7.5,8.1s-2.6,8-7.5,8s-7.5-3.5-7.5-8S792.4,41.8,797.3,41.8L797.3,41.8z
			 M797.3,55.7c2.7,0,4.8-2.1,4.8-5.8S800,44,797.3,44s-4.8,2.1-4.8,5.8S794.7,55.7,797.3,55.7z"/>
		<path class="st1" d="M807.7,42.1h2.4v2.4h0.1c1.1-1.9,2.8-2.8,5-2.8c4,0,5.3,2.3,5.3,5.6v10.1h-2.5V47.1c0-1.9-1.2-3.1-3.1-3.1
			c-3.1,0-4.6,2.1-4.6,4.8v8.7h-2.5L807.7,42.1L807.7,42.1z"/>
		<path class="st1" d="M824.1,42.1h2.4v2.3h0.1c1.1-1.7,2.9-2.6,5-2.6c1.9,0,3.6,0.7,4.2,2.6c1-1.6,2.9-2.6,4.8-2.6
			c3.1,0,5.1,1.3,5.1,4.5v11.3h-2.5V47.4c0-1.9-0.5-3.4-3-3.4s-4,1.6-4,3.9v9.6h-2.5V47.4c0-2-0.6-3.4-2.9-3.4c-3,0-4.1,2.8-4.1,3.9
			v9.6h-2.5L824.1,42.1L824.1,42.1z"/>
		<path class="st1" d="M862.6,52.6c-0.7,3.4-3.1,5.2-6.6,5.2c-4.9,0-7.2-3.4-7.4-8.1c0-4.6,3-8,7.2-8c5.5,0,7.1,5.1,7,8.8h-11.5
			c-0.1,2.7,1.4,5.1,4.8,5.1c2.1,0,3.5-1,4-3H862.6L862.6,52.6z M860.1,48.4c-0.1-2.4-1.9-4.4-4.4-4.4c-2.7,0-4.2,2-4.4,4.4H860.1z"
			/>
		<path class="st1" d="M865.5,42.1h2.4v2.4h0.1c1.1-1.9,2.8-2.8,5-2.8c4,0,5.3,2.3,5.3,5.6v10.1h-2.5V47.1c0-1.9-1.2-3.1-3.1-3.1
			c-3.1,0-4.6,2.1-4.6,4.8v8.7h-2.5L865.5,42.1L865.5,42.1z"/>
		<path class="st1" d="M885.4,42.1h3.1v2.2h-3.1v9.6c0,1.2,0.3,1.4,1.9,1.4h1.2v2.2h-1.9c-2.6,0-3.7-0.5-3.7-3.4v-9.8h-2.6v-2.2h2.6
			v-4.6h2.5L885.4,42.1L885.4,42.1z"/>
		<path class="st1" d="M913.2,57.5c-0.5,0.3-1,0.4-1.8,0.4c-1.3,0-2.2-0.7-2.2-2.4c-1.4,1.6-3.3,2.4-5.4,2.4c-2.8,0-5.1-1.2-5.1-4.3
			c0-3.5,2.6-4.2,5.2-4.7c2.8-0.5,5.2-0.4,5.2-2.3c0-2.2-1.8-2.6-3.4-2.6c-2.1,0-3.7,0.6-3.8,2.9h-2.5c0.2-3.8,3.1-5.1,6.5-5.1
			c2.8,0,5.8,0.6,5.8,4.2v7.9c0,1.2,0,1.7,0.8,1.7c0.2,0,0.5,0,0.8-0.1L913.2,57.5L913.2,57.5z M909.1,49.6c-1,0.7-2.9,0.7-4.6,1
			c-1.7,0.3-3.1,0.9-3.1,2.8c0,1.7,1.4,2.3,3,2.3c3.3,0,4.7-2.1,4.7-3.5L909.1,49.6L909.1,49.6z"/>
		<path class="st1" d="M915.6,42.1h2.4v2.4h0.1c1.1-1.9,2.8-2.8,5-2.8c4,0,5.3,2.3,5.3,5.6v10.1h-2.5V47.1c0-1.9-1.2-3.1-3.1-3.1
			c-3.1,0-4.6,2.1-4.6,4.8v8.7h-2.5L915.6,42.1L915.6,42.1z"/>
		<path class="st1" d="M945.8,57.5h-2.5v-2.1h-0.1c-0.8,1.7-2.8,2.4-4.9,2.4c-4.7,0-7.1-3.8-7.1-8.1s2.3-8,7-8c1.6,0,3.8,0.6,5,2.4
			h0.1v-7.9h2.5V57.5z M938.7,55.6c3.4,0,4.7-2.9,4.7-5.8c0-3-1.4-5.8-4.8-5.8s-4.6,2.9-4.6,5.9S935.4,55.6,938.7,55.6L938.7,55.6z"
			/>
		<path class="st1" d="M741.2,73.3c-0.6-3-3-4.5-6-4.5c-5.1,0-7.2,4.2-7.2,8.6c0,4.9,2.1,8.9,7.2,8.9c3.7,0,5.9-2.6,6.1-6.1h2.8
			c-0.5,5.3-3.8,8.5-9.2,8.5c-6.6,0-9.8-4.9-9.8-11.1s3.5-11.2,10.1-11.2c4.4,0,8.1,2.4,8.8,6.9H741.2L741.2,73.3z"/>
		<path class="st1" d="M747.4,66.9h2.5v21.3h-2.5V66.9z"/>
		<path class="st1" d="M756.2,70h-2.5v-3.1h2.5V70z M753.7,72.8h2.5v15.4h-2.5V72.8z"/>
		<path class="st1" d="M760,72.8h2.4V75h0.1c1.1-1.7,2.9-2.6,5-2.6c1.9,0,3.6,0.8,4.2,2.6c1-1.6,2.9-2.6,4.8-2.6
			c3.1,0,5.1,1.3,5.1,4.5v11.3H779V78.1c0-1.9-0.5-3.4-3-3.4s-4,1.6-4,3.9v9.6h-2.5V78.1c0-2-0.6-3.4-2.9-3.4c-3,0-4.1,2.8-4.1,3.9
			v9.6H760L760,72.8L760,72.8z"/>
		<path class="st1" d="M799,88.1c-0.5,0.3-1,0.4-1.8,0.4c-1.3,0-2.2-0.7-2.2-2.4c-1.4,1.6-3.3,2.4-5.4,2.4c-2.8,0-5.1-1.2-5.1-4.3
			c0-3.5,2.6-4.2,5.2-4.7c2.8-0.5,5.2-0.4,5.2-2.3c0-2.2-1.8-2.6-3.4-2.6c-2.1,0-3.7,0.6-3.8,2.9h-2.5c0.2-3.8,3.1-5.1,6.5-5.1
			c2.8,0,5.8,0.6,5.8,4.2v7.9c0,1.2,0,1.7,0.8,1.7c0.2,0,0.5,0,0.8-0.1L799,88.1L799,88.1z M794.9,80.2c-1,0.7-2.9,0.7-4.6,1
			c-1.7,0.3-3.1,0.9-3.1,2.8c0,1.7,1.4,2.3,3,2.3c3.3,0,4.7-2.1,4.7-3.5L794.9,80.2L794.9,80.2z"/>
		<path class="st1" d="M804.7,72.8h3.1V75h-3.1v9.6c0,1.2,0.3,1.4,1.9,1.4h1.2v2.2h-1.9c-2.6,0-3.7-0.5-3.7-3.4V75h-2.6v-2.2h2.6
			v-4.6h2.5L804.7,72.8L804.7,72.8z"/>
		<path class="st1" d="M823.1,83.3c-0.7,3.4-3.1,5.2-6.6,5.2c-4.9,0-7.2-3.4-7.4-8.1c0-4.6,3-8,7.2-8c5.5,0,7.1,5.1,7,8.8h-11.5
			c-0.1,2.7,1.4,5.1,4.8,5.1c2.1,0,3.5-1,4-3L823.1,83.3L823.1,83.3z M820.7,79c-0.1-2.4-1.9-4.4-4.4-4.4c-2.7,0-4.2,2-4.4,4.4
			H820.7z"/>
		<path class="st1" d="M849.6,73.3c-0.6-3-3-4.5-6-4.5c-5.1,0-7.2,4.2-7.2,8.6c0,4.9,2.1,8.9,7.2,8.9c3.7,0,5.9-2.6,6.1-6.1h2.8
			c-0.5,5.3-3.8,8.5-9.2,8.5c-6.6,0-9.8-4.9-9.8-11.1s3.5-11.2,10.1-11.2c4.4,0,8.1,2.4,8.8,6.9H849.6L849.6,73.3z"/>
		<path class="st1" d="M855.6,66.9h2.5v8.1h0.1c0.8-1.9,3-2.6,4.8-2.6c4,0,5.3,2.3,5.3,5.6v10.1h-2.5V77.8c0-1.9-1.2-3.1-3.1-3.1
			c-3.1,0-4.6,2.1-4.6,4.8v8.7h-2.5L855.6,66.9L855.6,66.9z"/>
		<path class="st1" d="M885.7,88.1c-0.5,0.3-1,0.4-1.8,0.4c-1.3,0-2.2-0.7-2.2-2.4c-1.4,1.6-3.3,2.4-5.4,2.4c-2.8,0-5.1-1.2-5.1-4.3
			c0-3.5,2.6-4.2,5.2-4.7c2.8-0.5,5.2-0.4,5.2-2.3c0-2.2-1.8-2.6-3.4-2.6c-2.1,0-3.7,0.6-3.8,2.9h-2.5c0.2-3.8,3.1-5.1,6.5-5.1
			c2.8,0,5.8,0.6,5.8,4.2v7.9c0,1.2,0,1.7,0.8,1.7c0.2,0,0.5,0,0.8-0.1V88.1L885.7,88.1z M881.6,80.2c-1,0.7-2.9,0.7-4.6,1
			c-1.7,0.3-3.1,0.9-3.1,2.8c0,1.7,1.4,2.3,3,2.3c3.3,0,4.7-2.1,4.7-3.5L881.6,80.2L881.6,80.2z"/>
		<path class="st1" d="M888.1,72.8h2.4v2.4h0.1c1.1-1.9,2.8-2.8,5-2.8c4,0,5.3,2.3,5.3,5.6v10.1h-2.5V77.8c0-1.9-1.2-3.1-3.1-3.1
			c-3.1,0-4.6,2.1-4.6,4.8v8.7h-2.5L888.1,72.8L888.1,72.8z"/>
		<path class="st1" d="M917.8,86.9c0,5-2.3,7.6-7.2,7.6c-2.9,0-6.2-1.2-6.4-4.5h2.5c0.1,1.9,2.3,2.5,4,2.5c3.3,0,4.6-2.4,4.6-5.8v-1
			h-0.1c-0.8,1.9-2.9,2.8-4.8,2.8c-4.6,0-6.9-3.6-6.9-7.8c0-3.6,1.8-8.1,7.1-8.1c1.9,0,3.7,0.9,4.6,2.6h0v-2.2h2.4L917.8,86.9
			L917.8,86.9z M915.3,80.2c0-2.7-1.2-5.5-4.4-5.5s-4.6,2.6-4.6,5.6c0,2.8,1,5.9,4.3,5.9S915.3,83.1,915.3,80.2L915.3,80.2z"/>
		<path class="st1" d="M934.7,83.3c-0.7,3.4-3.1,5.2-6.6,5.2c-4.9,0-7.2-3.4-7.4-8.1c0-4.6,3-8,7.2-8c5.5,0,7.1,5.1,7,8.8h-11.5
			c-0.1,2.7,1.4,5.1,4.8,5.1c2.1,0,3.5-1,4-3L934.7,83.3L934.7,83.3z M932.2,79c-0.1-2.4-1.9-4.4-4.4-4.4c-2.7,0-4.2,2-4.4,4.4
			H932.2z"/>
		<path class="st1" d="M961.2,73.3c-0.6-3-3-4.5-6-4.5c-5.1,0-7.2,4.2-7.2,8.6c0,4.9,2.1,8.9,7.2,8.9c3.7,0,5.9-2.6,6.1-6.1h2.8
			c-0.5,5.3-3.8,8.5-9.2,8.5c-6.6,0-9.8-4.9-9.8-11.1s3.5-11.2,10.1-11.2c4.4,0,8.1,2.4,8.8,6.9H961.2L961.2,73.3z"/>
		<path class="st1" d="M980.7,88.1c-0.5,0.3-1,0.4-1.8,0.4c-1.3,0-2.2-0.7-2.2-2.4c-1.4,1.6-3.3,2.4-5.4,2.4c-2.8,0-5.1-1.2-5.1-4.3
			c0-3.5,2.6-4.2,5.2-4.7c2.8-0.5,5.2-0.4,5.2-2.3c0-2.2-1.8-2.6-3.4-2.6c-2.1,0-3.7,0.6-3.8,2.9h-2.5c0.2-3.8,3.1-5.1,6.5-5.1
			c2.8,0,5.8,0.6,5.8,4.2v7.9c0,1.2,0,1.7,0.8,1.7c0.2,0,0.5,0,0.8-0.1V88.1L980.7,88.1z M976.6,80.2c-1,0.7-2.9,0.7-4.6,1
			c-1.7,0.3-3.1,0.9-3.1,2.8c0,1.7,1.4,2.3,3,2.3c3.3,0,4.7-2.1,4.7-3.5V80.2z"/>
		<path class="st1" d="M983.1,72.8h2.4v2.4h0.1c1.1-1.9,2.8-2.8,5-2.8c4,0,5.3,2.3,5.3,5.6v10.1h-2.5V77.8c0-1.9-1.2-3.1-3.1-3.1
			c-3.1,0-4.6,2.1-4.6,4.8v8.7H983L983.1,72.8L983.1,72.8z"/>
		<path class="st1" d="M1013.1,88.1c-0.5,0.3-1,0.4-1.8,0.4c-1.3,0-2.2-0.7-2.2-2.4c-1.4,1.6-3.3,2.4-5.4,2.4
			c-2.8,0-5.1-1.2-5.1-4.3c0-3.5,2.6-4.2,5.2-4.7c2.8-0.5,5.2-0.4,5.2-2.3c0-2.2-1.8-2.6-3.4-2.6c-2.1,0-3.7,0.6-3.8,2.9h-2.5
			c0.2-3.8,3.1-5.1,6.5-5.1c2.8,0,5.8,0.6,5.8,4.2v7.9c0,1.2,0,1.7,0.8,1.7c0.2,0,0.5,0,0.8-0.1L1013.1,88.1L1013.1,88.1z
			 M1009,80.2c-1,0.7-2.9,0.7-4.6,1c-1.7,0.3-3.1,0.9-3.1,2.8c0,1.7,1.4,2.3,3,2.3c3.3,0,4.7-2.1,4.7-3.5L1009,80.2L1009,80.2z"/>
		<path class="st1" d="M1029.1,88.2h-2.5v-2.1h-0.1c-0.8,1.7-2.8,2.4-4.9,2.4c-4.7,0-7.1-3.8-7.1-8.1s2.3-8,7-8c1.6,0,3.8,0.6,5,2.4
			h0.1v-7.9h2.5V88.2z M1022,86.3c3.4,0,4.7-2.9,4.7-5.8c0-3-1.4-5.8-4.8-5.8s-4.6,2.9-4.6,5.9S1018.7,86.3,1022,86.3L1022,86.3z"/>
		<path class="st1" d="M1046.6,88.1c-0.4,0.3-1,0.4-1.8,0.4c-1.3,0-2.2-0.7-2.2-2.4c-1.4,1.6-3.3,2.4-5.4,2.4
			c-2.8,0-5.1-1.2-5.1-4.3c0-3.5,2.6-4.2,5.2-4.7c2.8-0.5,5.2-0.4,5.2-2.3c0-2.2-1.8-2.6-3.4-2.6c-2.1,0-3.7,0.6-3.8,2.9h-2.5
			c0.2-3.8,3.1-5.1,6.5-5.1c2.8,0,5.8,0.6,5.8,4.2v7.9c0,1.2,0,1.7,0.8,1.7c0.2,0,0.4,0,0.8-0.1L1046.6,88.1L1046.6,88.1z
			 M1042.5,80.2c-1,0.7-2.9,0.7-4.6,1c-1.7,0.3-3.1,0.9-3.1,2.8c0,1.7,1.4,2.3,3,2.3c3.3,0,4.7-2.1,4.7-3.5L1042.5,80.2L1042.5,80.2
			z"/>
	</g>
</g>
</svg>
