<?xml version="1.0" encoding="utf-8"?>
<!-- Generator: Adobe Illustrator 26.5.0, SVG Export Plug-In . SVG Version: 6.00 Build 0)  -->
<svg version="1.1" id="Layer_1" xmlns="http://www.w3.org/2000/svg" xmlns:xlink="http://www.w3.org/1999/xlink" x="0px" y="0px"
	 viewBox="100 50 950 65" style="enable-background:new 0 0 950 65;" xml:space="preserve">
<style type="text/css">
	.st0{fill-rule:evenodd;clip-rule:evenodd;fill:#ED1C24;}
	.st1{fill:#231F20;}
</style>
<g>
	<g>
		<path class="st0" d="M155.9,57.8c0,0-3.2,6.2-3.7,6.9c-0.4,0.9-0.9,0.9-1.5,0.4c-0.9-0.4-3.5-1.9-3.5-1.9s2.4,10.3,2.4,11.2
			c0.2,0.9-0.6,1.5-1.5,0.9c-0.2-0.2-4.8-5.4-4.8-5.4s-1.1,2.4-1.3,2.8c-0.2,0.4-0.4,0.9-1.1,0.6c-0.9-0.2-5-1.1-5-1.1
			s1.5,5.1,1.7,5.8c0.2,0.5,0.4,1.1-0.4,1.5l-1.5,0.6c0,0,8.9,7.8,9.1,8c0.4,0.4,0.9,0.6,0.4,1.9c-0.4,1.3-0.9,3-0.9,3
			s8.2-1.7,9.1-1.9c0.8-0.1,1.6,0.2,1.6,1.1s-0.5,9.7-0.5,9.7h2.6c0,0-0.5-8.9-0.5-9.7s0.8-1.2,1.6-1.1c0.9,0.2,9.1,1.9,9.1,1.9
			s-0.4-1.7-0.9-3c-0.4-1.3,0-1.5,0.4-1.9c0.2-0.2,9.1-8,9.1-8l-1.5-0.6c-0.9-0.4-0.6-1-0.4-1.5c0.2-0.6,1.7-5.8,1.7-5.8
			s-4.1,0.9-5,1.1c-0.6,0.2-0.9-0.2-1.1-0.6c-0.2-0.4-1.3-2.8-1.3-2.8s-4.5,5.2-4.8,5.4c-0.9,0.6-1.7,0-1.5-0.9
			c0-0.9,2.4-11.2,2.4-11.2s-2.6,1.5-3.5,1.9c-0.6,0.4-1.1,0.4-1.5-0.4C159.2,64,156,57.8,155.9,57.8L155.9,57.8L155.9,57.8z"/>
		<polygon class="st0" points="129.8,105.9 129.8,53.9 103.6,53.9 103.6,105.9 129.8,105.9 		"/>
		<polygon class="st0" points="208.3,105.9 208.3,53.9 182.1,53.9 182.1,105.9 208.3,105.9 		"/>
	</g>
	<g>
		<path class="st1" d="M623.5,53.9h14.7v2.4h-11.8v6.8h11v2.4h-11v7.4h11.9v2.4h-14.8V53.9L623.5,53.9z"/>
		<path class="st1" d="M641,59.8h2.4v2.4h0.1c1.1-1.9,2.8-2.8,5-2.8c4,0,5.3,2.3,5.3,5.6v10.1h-2.5V64.8c0-1.9-1.2-3.1-3.1-3.1
			c-3.1,0-4.6,2.1-4.6,4.8v8.7H641L641,59.8L641,59.8z"/>
		<path class="st1" d="M663.8,75.2h-2.7l-5.7-15.4h2.8l4.3,12.8h0.1l4.2-12.8h2.7L663.8,75.2L663.8,75.2z"/>
		<path class="st1" d="M674.3,57h-2.5v-3.1h2.5V57z M671.8,59.8h2.5v15.4h-2.5V59.8z"/>
		<path class="st1" d="M678,59.8h2.4V63h0.1c1.2-2.5,2.9-3.7,5.7-3.6v2.7c-4.1,0-5.6,2.3-5.6,6.2v6.9H678L678,59.8L678,59.8z"/>
		<path class="st1" d="M694.5,59.4c4.9,0,7.5,3.5,7.5,8.1s-2.6,8-7.5,8s-7.5-3.5-7.5-8S689.6,59.4,694.5,59.4L694.5,59.4z
			 M694.5,73.3c2.7,0,4.8-2.1,4.8-5.8s-2.1-5.8-4.8-5.8s-4.8,2.1-4.8,5.8S691.8,73.3,694.5,73.3z"/>
		<path class="st1" d="M704.8,59.8h2.4v2.4h0.1c1.1-1.9,2.8-2.8,5-2.8c4,0,5.3,2.3,5.3,5.6v10.1h-2.5V64.8c0-1.9-1.2-3.1-3.1-3.1
			c-3.1,0-4.6,2.1-4.6,4.8v8.7h-2.5L704.8,59.8L704.8,59.8z"/>
		<path class="st1" d="M721.3,59.8h2.4v2.4h0.1c1.1-1.9,2.8-2.8,5-2.8c4,0,5.3,2.3,5.3,5.6v10.1h-2.5V64.8c0-1.9-1.2-3.1-3.1-3.1
			c-3.1,0-4.6,2.1-4.6,4.8v8.7h-2.5L721.3,59.8L721.3,59.8z"/>
		<path class="st1" d="M750.9,70.3c-0.7,3.4-3.1,5.2-6.6,5.2c-4.9,0-7.2-3.4-7.4-8.1c0-4.6,3-8,7.2-8c5.5,0,7.1,5.1,7,8.8h-11.5
			c-0.1,2.7,1.4,5.1,4.8,5.1c2.1,0,3.5-1,4-3H750.9L750.9,70.3z M748.4,66c-0.1-2.4-1.9-4.4-4.4-4.4c-2.7,0-4.2,2-4.4,4.4H748.4z"/>
		<path class="st1" d="M753.8,59.8h2.4V62h0.1c1.1-1.7,2.9-2.6,5-2.6c1.9,0,3.6,0.7,4.2,2.6c1-1.6,2.9-2.6,4.8-2.6
			c3.1,0,5.1,1.3,5.1,4.5v11.3h-2.5V65.1c0-1.9-0.5-3.4-3-3.4s-4,1.6-4,3.9v9.6h-2.5V65.1c0-2-0.6-3.4-2.9-3.4c-3,0-4.1,2.8-4.1,3.9
			v9.6h-2.5L753.8,59.8L753.8,59.8z"/>
		<path class="st1" d="M792.2,70.3c-0.7,3.4-3.1,5.2-6.6,5.2c-4.9,0-7.2-3.4-7.4-8.1c0-4.6,3-8,7.2-8c5.5,0,7.1,5.1,7,8.8H781
			c-0.1,2.7,1.4,5.1,4.8,5.1c2.1,0,3.5-1,4-3H792.2L792.2,70.3z M789.8,66c-0.1-2.4-1.9-4.4-4.4-4.4c-2.7,0-4.2,2-4.4,4.4H789.8
			L789.8,66z"/>
		<path class="st1" d="M795.2,59.8h2.4v2.4h0.1c1.1-1.9,2.8-2.8,5-2.8c4,0,5.3,2.3,5.3,5.6v10.1h-2.5V64.8c0-1.9-1.2-3.1-3.1-3.1
			c-3.1,0-4.6,2.1-4.6,4.8v8.7h-2.5L795.2,59.8L795.2,59.8z"/>
		<path class="st1" d="M815.1,59.8h3.1V62h-3.1v9.6c0,1.2,0.3,1.4,1.9,1.4h1.2v2.2h-1.9c-2.6,0-3.7-0.5-3.7-3.4V62h-2.6v-2.2h2.6
			v-4.6h2.5L815.1,59.8L815.1,59.8z"/>
		<path class="st1" d="M842.4,70.3c-0.7,3.4-3.1,5.2-6.6,5.2c-4.9,0-7.2-3.4-7.4-8.1c0-4.6,3-8,7.2-8c5.5,0,7.1,5.1,7,8.8h-11.5
			c-0.1,2.7,1.4,5.1,4.8,5.1c2.1,0,3.5-1,4-3H842.4L842.4,70.3z M839.9,66c-0.1-2.4-1.9-4.4-4.4-4.4c-2.7,0-4.2,2-4.4,4.4H839.9
			L839.9,66z"/>
		<path class="st1" d="M848.6,59.8h3.1V62h-3.1v9.6c0,1.2,0.3,1.4,1.9,1.4h1.2v2.2h-1.9c-2.6,0-3.7-0.5-3.7-3.4V62h-2.6v-2.2h2.6
			v-4.6h2.5L848.6,59.8L848.6,59.8z"/>
		<path class="st1" d="M638.4,91c-0.6-3-3-4.5-6-4.5c-5.1,0-7.2,4.2-7.2,8.6c0,4.9,2.1,8.9,7.2,8.9c3.7,0,5.9-2.6,6.1-6.1h2.8
			c-0.5,5.3-3.8,8.5-9.2,8.5c-6.6,0-9.8-4.9-9.8-11.1s3.5-11.2,10.1-11.2c4.4,0,8.1,2.4,8.8,6.9H638.4L638.4,91z"/>
		<path class="st1" d="M644.4,84.6h2.5v8.1h0.1c0.8-1.9,3-2.6,4.8-2.6c4,0,5.3,2.3,5.3,5.6v10.1h-2.5V95.4c0-1.9-1.2-3.1-3.1-3.1
			c-3.1,0-4.6,2.1-4.6,4.8v8.7h-2.5L644.4,84.6L644.4,84.6z"/>
		<path class="st1" d="M674.5,105.8c-0.5,0.3-1,0.4-1.8,0.4c-1.3,0-2.1-0.7-2.1-2.4c-1.4,1.6-3.3,2.4-5.4,2.4
			c-2.8,0-5.1-1.2-5.1-4.3c0-3.5,2.6-4.2,5.2-4.7c2.8-0.5,5.2-0.4,5.2-2.3c0-2.2-1.8-2.6-3.4-2.6c-2.1,0-3.7,0.6-3.8,2.9h-2.5
			c0.2-3.8,3.1-5.1,6.5-5.1c2.8,0,5.8,0.6,5.8,4.2v7.9c0,1.2,0,1.7,0.8,1.7c0.2,0,0.5,0,0.8-0.1L674.5,105.8L674.5,105.8z
			 M670.4,97.9c-1,0.7-2.9,0.7-4.6,1c-1.7,0.3-3.1,0.9-3.1,2.8c0,1.7,1.4,2.3,3,2.3c3.3,0,4.7-2.1,4.7-3.5L670.4,97.9L670.4,97.9z"
			/>
		<path class="st1" d="M676.9,90.4h2.4v2.4h0.1c1.1-1.9,2.8-2.8,5-2.8c4,0,5.3,2.3,5.3,5.6v10.1h-2.5V95.4c0-1.9-1.2-3.1-3.1-3.1
			c-3.1,0-4.6,2.1-4.6,4.8v8.7h-2.5L676.9,90.4L676.9,90.4z"/>
		<path class="st1" d="M706.6,104.5c0,5-2.3,7.6-7.2,7.6c-2.9,0-6.2-1.2-6.4-4.5h2.5c0.1,1.9,2.3,2.5,4,2.5c3.3,0,4.6-2.4,4.6-5.8
			v-1h-0.1c-0.8,1.9-2.9,2.8-4.8,2.8c-4.6,0-6.9-3.6-6.9-7.8c0-3.6,1.8-8.1,7.1-8.1c1.9,0,3.7,0.9,4.6,2.6h0v-2.2h2.4L706.6,104.5
			L706.6,104.5z M704.1,97.8c0-2.7-1.2-5.5-4.4-5.5s-4.6,2.6-4.6,5.6c0,2.8,1,5.9,4.3,5.9S704.1,100.7,704.1,97.8z"/>
		<path class="st1" d="M723.5,101c-0.7,3.4-3.1,5.2-6.6,5.2c-4.9,0-7.2-3.4-7.4-8.1c0-4.6,3-8,7.2-8c5.5,0,7.1,5.1,7,8.8h-11.5
			c-0.1,2.7,1.4,5.1,4.8,5.1c2.1,0,3.5-1,4-3L723.5,101L723.5,101z M721,96.7c-0.1-2.4-1.9-4.4-4.4-4.4c-2.7,0-4.2,2-4.4,4.4H721z"
			/>
		<path class="st1" d="M726.4,90.4h2.4v2.3h0.1c1.1-1.7,2.9-2.6,5-2.6c1.9,0,3.6,0.8,4.2,2.6c1-1.6,2.9-2.6,4.8-2.6
			c3.1,0,5.1,1.3,5.1,4.5v11.3h-2.5V95.7c0-1.9-0.5-3.4-3-3.4s-4,1.6-4,3.9v9.6h-2.5V95.7c0-2-0.6-3.4-2.9-3.4c-3,0-4.1,2.8-4.1,3.9
			v9.6h-2.5L726.4,90.4L726.4,90.4z"/>
		<path class="st1" d="M764.9,101c-0.7,3.4-3.1,5.2-6.6,5.2c-4.9,0-7.2-3.4-7.4-8.1c0-4.6,3-8,7.2-8c5.5,0,7.1,5.1,7,8.8h-11.5
			c-0.1,2.7,1.4,5.1,4.8,5.1c2.1,0,3.5-1,4-3L764.9,101L764.9,101z M762.4,96.7c-0.1-2.4-1.9-4.4-4.4-4.4c-2.7,0-4.2,2-4.4,4.4
			H762.4L762.4,96.7z"/>
		<path class="st1" d="M767.8,90.4h2.4v2.4h0.1c1.1-1.9,2.8-2.8,5-2.8c4,0,5.3,2.3,5.3,5.6v10.1H778V95.4c0-1.9-1.2-3.1-3.1-3.1
			c-3.1,0-4.6,2.1-4.6,4.8v8.7h-2.5L767.8,90.4L767.8,90.4z"/>
		<path class="st1" d="M787.7,90.4h3.1v2.2h-3.1v9.6c0,1.2,0.3,1.4,1.9,1.4h1.2v2.2h-1.9c-2.6,0-3.7-0.5-3.7-3.4v-9.8h-2.6v-2.2h2.6
			v-4.6h2.5L787.7,90.4L787.7,90.4z"/>
		<path class="st1" d="M812.3,95.4c-0.4-1.9-1.7-3.1-3.8-3.1c-3.7,0-4.8,2.9-4.8,6c0,2.8,1.3,5.6,4.5,5.6c2.4,0,3.9-1.4,4.2-3.8h2.6
			c-0.6,3.8-2.9,6-6.8,6c-4.7,0-7.2-3.3-7.2-7.9s2.4-8.2,7.3-8.2c3.5,0,6.3,1.6,6.6,5.3H812.3L812.3,95.4z"/>
		<path class="st1" d="M817.9,84.6h2.5v21.3h-2.5V84.6z"/>
		<path class="st1" d="M826.8,87.7h-2.5v-3.1h2.5V87.7z M824.2,90.4h2.5v15.4h-2.5V90.4z"/>
		<path class="st1" d="M830.5,90.4h2.4v2.3h0.1c1.1-1.7,2.9-2.6,5-2.6c1.9,0,3.6,0.8,4.2,2.6c1-1.6,2.9-2.6,4.8-2.6
			c3.1,0,5.1,1.3,5.1,4.5v11.3h-2.5V95.7c0-1.9-0.5-3.4-3-3.4s-4,1.6-4,3.9v9.6H840V95.7c0-2-0.6-3.4-2.9-3.4c-3,0-4.1,2.8-4.1,3.9
			v9.6h-2.5L830.5,90.4L830.5,90.4z"/>
		<path class="st1" d="M869.5,105.8c-0.5,0.3-1,0.4-1.8,0.4c-1.3,0-2.1-0.7-2.1-2.4c-1.4,1.6-3.3,2.4-5.4,2.4
			c-2.8,0-5.1-1.2-5.1-4.3c0-3.5,2.6-4.2,5.2-4.7c2.8-0.5,5.2-0.4,5.2-2.3c0-2.2-1.8-2.6-3.4-2.6c-2.1,0-3.7,0.6-3.8,2.9h-2.5
			c0.2-3.8,3.1-5.1,6.5-5.1c2.8,0,5.8,0.6,5.8,4.2v7.9c0,1.2,0,1.7,0.8,1.7c0.2,0,0.5,0,0.8-0.1L869.5,105.8L869.5,105.8z
			 M865.4,97.9c-1,0.7-2.9,0.7-4.6,1c-1.7,0.3-3.1,0.9-3.1,2.8c0,1.7,1.4,2.3,3,2.3c3.3,0,4.7-2.1,4.7-3.5L865.4,97.9L865.4,97.9z"
			/>
		<path class="st1" d="M875.2,90.4h3.1v2.2h-3.1v9.6c0,1.2,0.3,1.4,1.9,1.4h1.2v2.2h-1.9c-2.6,0-3.7-0.5-3.7-3.4v-9.8h-2.6v-2.2h2.6
			v-4.6h2.5L875.2,90.4L875.2,90.4z"/>
		<path class="st1" d="M883.5,87.7h-2.5v-3.1h2.5V87.7z M880.9,90.4h2.5v15.4h-2.5V90.4z"/>
		<path class="st1" d="M901.1,111.7h-2.5v-8h-0.1c-0.8,1.7-2.8,2.4-4.9,2.4c-4.7,0-7.1-3.8-7.1-8.1s2.3-8,7-8c1.6,0,3.8,0.6,5,2.4
			h0.1v-2.1h2.5V111.7L901.1,111.7z M893.9,104c3.4,0,4.7-2.9,4.7-5.8c0-3-1.4-5.8-4.8-5.8s-4.6,2.9-4.6,6S890.7,104,893.9,104
			L893.9,104z"/>
		<path class="st1" d="M917.5,105.8h-2.4v-2.4h-0.1c-1.1,1.9-2.8,2.8-5,2.8c-4,0-5.3-2.3-5.3-5.6V90.4h2.5v10.4
			c0,1.9,1.2,3.1,3.1,3.1c3.1,0,4.6-2.1,4.6-4.8v-8.7h2.5L917.5,105.8L917.5,105.8z"/>
		<path class="st1" d="M934.4,101c-0.7,3.4-3.1,5.2-6.6,5.2c-4.9,0-7.2-3.4-7.4-8.1c0-4.6,3-8,7.2-8c5.5,0,7.1,5.1,7,8.8h-11.5
			c-0.1,2.7,1.4,5.1,4.8,5.1c2.1,0,3.5-1,4-3L934.4,101L934.4,101z M932,96.7c-0.1-2.4-1.9-4.4-4.4-4.4c-2.7,0-4.2,2-4.4,4.4H932z"
			/>
		<path class="st1" d="M960.9,91c-0.6-3-3-4.5-6-4.5c-5.1,0-7.2,4.2-7.2,8.6c0,4.9,2.1,8.9,7.2,8.9c3.7,0,5.9-2.6,6.1-6.1h2.8
			c-0.5,5.3-3.8,8.5-9.2,8.5c-6.6,0-9.8-4.9-9.8-11.1s3.5-11.2,10.1-11.2c4.4,0,8.1,2.4,8.8,6.9H960.9L960.9,91z"/>
		<path class="st1" d="M980.4,105.8c-0.5,0.3-1,0.4-1.8,0.4c-1.3,0-2.2-0.7-2.2-2.4c-1.4,1.6-3.3,2.4-5.4,2.4
			c-2.8,0-5.1-1.2-5.1-4.3c0-3.5,2.6-4.2,5.2-4.7c2.8-0.5,5.2-0.4,5.2-2.3c0-2.2-1.8-2.6-3.4-2.6c-2.1,0-3.7,0.6-3.8,2.9h-2.5
			c0.2-3.8,3.1-5.1,6.5-5.1c2.8,0,5.8,0.6,5.8,4.2v7.9c0,1.2,0,1.7,0.8,1.7c0.2,0,0.5,0,0.8-0.1V105.8L980.4,105.8z M976.3,97.9
			c-1,0.7-2.9,0.7-4.6,1c-1.7,0.3-3.1,0.9-3.1,2.8c0,1.7,1.4,2.3,3,2.3c3.3,0,4.7-2.1,4.7-3.5L976.3,97.9L976.3,97.9z"/>
		<path class="st1" d="M982.8,90.4h2.4v2.4h0.1c1.1-1.9,2.8-2.8,5-2.8c4,0,5.3,2.3,5.3,5.6v10.1H993V95.4c0-1.9-1.2-3.1-3.1-3.1
			c-3.1,0-4.6,2.1-4.6,4.8v8.7h-2.5L982.8,90.4L982.8,90.4z"/>
		<path class="st1" d="M1012.9,105.8c-0.5,0.3-1,0.4-1.8,0.4c-1.3,0-2.2-0.7-2.2-2.4c-1.4,1.6-3.3,2.4-5.4,2.4
			c-2.8,0-5.1-1.2-5.1-4.3c0-3.5,2.6-4.2,5.2-4.7c2.8-0.5,5.2-0.4,5.2-2.3c0-2.2-1.8-2.6-3.4-2.6c-2.1,0-3.7,0.6-3.8,2.9H999
			c0.2-3.8,3.1-5.1,6.5-5.1c2.8,0,5.8,0.6,5.8,4.2v7.9c0,1.2,0,1.7,0.8,1.7c0.2,0,0.5,0,0.8-0.1V105.8L1012.9,105.8z M1008.8,97.9
			c-1,0.7-2.9,0.7-4.6,1c-1.7,0.3-3.1,0.9-3.1,2.8c0,1.7,1.4,2.3,3,2.3c3.3,0,4.7-2.1,4.7-3.5V97.9z"/>
		<path class="st1" d="M1028.9,105.8h-2.5v-2.1h-0.1c-0.8,1.7-2.8,2.4-4.9,2.4c-4.7,0-7.1-3.8-7.1-8.1s2.3-8,7-8
			c1.6,0,3.8,0.6,5,2.4h0.1v-7.9h2.5V105.8z M1021.7,104c3.4,0,4.7-2.9,4.7-5.8c0-3-1.4-5.8-4.8-5.8s-4.6,2.9-4.6,6
			S1018.5,104,1021.7,104L1021.7,104z"/>
		<path class="st1" d="M1046.3,105.8c-0.4,0.3-1,0.4-1.8,0.4c-1.3,0-2.2-0.7-2.2-2.4c-1.4,1.6-3.3,2.4-5.4,2.4
			c-2.8,0-5.1-1.2-5.1-4.3c0-3.5,2.6-4.2,5.2-4.7c2.8-0.5,5.2-0.4,5.2-2.3c0-2.2-1.8-2.6-3.4-2.6c-2.1,0-3.7,0.6-3.8,2.9h-2.5
			c0.2-3.8,3.1-5.1,6.5-5.1c2.8,0,5.8,0.6,5.8,4.2v7.9c0,1.2,0,1.7,0.8,1.7c0.2,0,0.4,0,0.8-0.1L1046.3,105.8L1046.3,105.8z
			 M1042.2,97.9c-1,0.7-2.9,0.7-4.6,1c-1.7,0.3-3.1,0.9-3.1,2.8c0,1.7,1.4,2.3,3,2.3c3.3,0,4.7-2.1,4.7-3.5V97.9z"/>
	</g>
	<g>
		<path class="st1" d="M254.4,53.9h14.7v2.4h-11.9v6.8h11v2.4h-11v7.4h11.9v2.4h-14.8V53.9L254.4,53.9z"/>
		<path class="st1" d="M271.9,59.8h2.4v2.4h0.1c1.1-1.9,2.8-2.8,5-2.8c4,0,5.3,2.3,5.3,5.6v10.1h-2.5V64.8c0-1.9-1.2-3.1-3.1-3.1
			c-3.1,0-4.6,2.1-4.6,4.8v8.7h-2.5L271.9,59.8L271.9,59.8z"/>
		<path class="st1" d="M294.8,75.2H292l-5.7-15.4h2.8l4.3,12.8h0.1l4.2-12.8h2.6L294.8,75.2z"/>
		<path class="st1" d="M305.2,57h-2.5v-3.1h2.5V57z M302.7,59.8h2.5v15.4h-2.5V59.8z"/>
		<path class="st1" d="M308.9,59.8h2.4V63h0.1c1.2-2.5,2.9-3.7,5.7-3.6v2.7c-4.1,0-5.6,2.3-5.6,6.2v6.9h-2.5V59.8z"/>
		<path class="st1" d="M325.4,59.4c4.9,0,7.5,3.5,7.5,8.1s-2.6,8-7.5,8s-7.5-3.5-7.5-8S320.5,59.4,325.4,59.4L325.4,59.4z
			 M325.4,73.3c2.6,0,4.8-2.1,4.8-5.8s-2.1-5.8-4.8-5.8s-4.8,2.1-4.8,5.8S322.7,73.3,325.4,73.3z"/>
		<path class="st1" d="M335.8,59.8h2.4v2.4h0.1c1.1-1.9,2.8-2.8,5-2.8c4,0,5.3,2.3,5.3,5.6v10.1H346V64.8c0-1.9-1.2-3.1-3.1-3.1
			c-3.1,0-4.6,2.1-4.6,4.8v8.7h-2.5L335.8,59.8L335.8,59.8z"/>
		<path class="st1" d="M352.2,59.8h2.4V62h0.1c1.1-1.7,2.9-2.6,5-2.6c1.9,0,3.6,0.7,4.2,2.6c1-1.6,2.9-2.6,4.8-2.6
			c3.1,0,5.1,1.3,5.1,4.5v11.3h-2.5V65.1c0-1.9-0.5-3.4-3-3.4s-4,1.6-4,3.9v9.6h-2.5V65.1c0-2-0.6-3.4-2.9-3.4c-3,0-4.1,2.8-4.1,3.9
			v9.6h-2.5L352.2,59.8L352.2,59.8z"/>
		<path class="st1" d="M390.7,70.3c-0.7,3.4-3.1,5.2-6.6,5.2c-4.9,0-7.2-3.4-7.4-8.1c0-4.6,3-8,7.2-8c5.5,0,7.1,5.1,7,8.8h-11.5
			c-0.1,2.7,1.4,5.1,4.8,5.1c2.1,0,3.5-1,4-3H390.7z M388.2,66c-0.1-2.4-1.9-4.4-4.4-4.4c-2.6,0-4.2,2-4.4,4.4H388.2L388.2,66z"/>
		<path class="st1" d="M393.6,59.8h2.4v2.4h0.1c1.1-1.9,2.8-2.8,5-2.8c4,0,5.3,2.3,5.3,5.6v10.1h-2.5V64.8c0-1.9-1.2-3.1-3.1-3.1
			c-3.1,0-4.6,2.1-4.6,4.8v8.7h-2.5L393.6,59.8L393.6,59.8z"/>
		<path class="st1" d="M413.5,59.8h3.1V62h-3.1v9.6c0,1.2,0.3,1.4,1.9,1.4h1.2v2.2h-1.9c-2.6,0-3.7-0.5-3.7-3.4V62h-2.6v-2.2h2.6
			v-4.6h2.5L413.5,59.8L413.5,59.8z"/>
		<path class="st1" d="M441.3,75.1c-0.5,0.3-1,0.4-1.8,0.4c-1.3,0-2.1-0.7-2.1-2.4c-1.4,1.6-3.3,2.4-5.4,2.4c-2.8,0-5.1-1.2-5.1-4.3
			c0-3.5,2.6-4.2,5.2-4.7c2.8-0.5,5.2-0.4,5.2-2.3c0-2.2-1.8-2.6-3.4-2.6c-2.1,0-3.7,0.6-3.8,2.9h-2.5c0.1-3.8,3.1-5.1,6.5-5.1
			c2.8,0,5.8,0.6,5.8,4.2v7.9c0,1.2,0,1.7,0.8,1.7c0.2,0,0.5,0,0.8-0.1L441.3,75.1L441.3,75.1z M437.2,67.2c-1,0.7-2.9,0.7-4.6,1
			c-1.7,0.3-3.1,0.9-3.1,2.8c0,1.7,1.4,2.3,3,2.3c3.3,0,4.7-2.1,4.7-3.5V67.2z"/>
		<path class="st1" d="M443.7,59.8h2.4v2.4h0.1c1.1-1.9,2.8-2.8,5-2.8c4,0,5.3,2.3,5.3,5.6v10.1h-2.5V64.8c0-1.9-1.2-3.1-3.1-3.1
			c-3.1,0-4.6,2.1-4.6,4.8v8.7h-2.5L443.7,59.8L443.7,59.8z"/>
		<path class="st1" d="M473.9,75.2h-2.5v-2.1h-0.1c-0.8,1.7-2.8,2.4-4.9,2.4c-4.7,0-7.1-3.8-7.1-8.1s2.3-8,7-8c1.6,0,3.8,0.6,5,2.4
			h0.1v-7.9h2.5V75.2z M466.8,73.3c3.4,0,4.7-2.9,4.7-5.8c0-3-1.4-5.8-4.9-5.8s-4.6,2.9-4.6,5.9S463.5,73.3,466.8,73.3L466.8,73.3z"
			/>
		<path class="st1" d="M269.3,91c-0.6-3-3-4.5-6-4.5c-5.1,0-7.2,4.2-7.2,8.6c0,4.9,2.1,8.9,7.2,8.9c3.7,0,5.9-2.6,6.1-6.1h2.8
			c-0.5,5.3-3.8,8.5-9.2,8.5c-6.6,0-9.8-4.9-9.8-11.1s3.5-11.2,10.1-11.2c4.4,0,8.1,2.4,8.8,6.9H269.3z"/>
		<path class="st1" d="M275.5,84.6h2.5v21.3h-2.5V84.6z"/>
		<path class="st1" d="M284.3,87.7h-2.5v-3.1h2.5V87.7z M281.8,90.4h2.5v15.4h-2.5V90.4z"/>
		<path class="st1" d="M288,90.4h2.4v2.3h0.1c1.1-1.7,2.9-2.6,5-2.6c1.9,0,3.6,0.8,4.2,2.6c1-1.6,2.9-2.6,4.8-2.6
			c3.1,0,5.1,1.3,5.1,4.5v11.3h-2.5V95.7c0-1.9-0.5-3.4-3-3.4s-4,1.6-4,3.9v9.6h-2.5V95.7c0-2-0.6-3.4-2.9-3.4c-3,0-4.1,2.8-4.1,3.9
			v9.6H288L288,90.4L288,90.4z"/>
		<path class="st1" d="M327.1,105.8c-0.5,0.3-1,0.4-1.8,0.4c-1.3,0-2.1-0.7-2.1-2.4c-1.4,1.6-3.3,2.4-5.4,2.4
			c-2.8,0-5.1-1.2-5.1-4.3c0-3.5,2.6-4.2,5.2-4.7c2.8-0.5,5.2-0.4,5.2-2.3c0-2.2-1.8-2.6-3.4-2.6c-2.1,0-3.7,0.6-3.8,2.9h-2.5
			c0.1-3.8,3.1-5.1,6.5-5.1c2.8,0,5.8,0.6,5.8,4.2v7.9c0,1.2,0,1.7,0.8,1.7c0.2,0,0.5,0,0.8-0.1L327.1,105.8L327.1,105.8z M323,97.9
			c-1,0.7-2.9,0.7-4.6,1c-1.7,0.3-3.1,0.9-3.1,2.8c0,1.7,1.4,2.3,3,2.3c3.3,0,4.7-2.1,4.7-3.5V97.9z"/>
		<path class="st1" d="M332.8,90.4h3.1v2.2h-3.1v9.6c0,1.2,0.3,1.4,1.9,1.4h1.2v2.2h-1.9c-2.6,0-3.7-0.5-3.7-3.4v-9.8h-2.6v-2.2h2.6
			v-4.6h2.5L332.8,90.4L332.8,90.4z"/>
		<path class="st1" d="M351.2,101c-0.7,3.4-3.1,5.2-6.6,5.2c-4.9,0-7.2-3.4-7.4-8.1c0-4.6,3-8,7.2-8c5.5,0,7.1,5.1,7,8.8h-11.5
			c-0.1,2.7,1.4,5.1,4.8,5.1c2.1,0,3.5-1,4-3L351.2,101L351.2,101z M348.7,96.7c-0.1-2.4-1.9-4.4-4.4-4.4c-2.6,0-4.2,2-4.4,4.4
			H348.7L348.7,96.7z"/>
		<path class="st1" d="M377.7,91c-0.6-3-3-4.5-6-4.5c-5.1,0-7.2,4.2-7.2,8.6c0,4.9,2.1,8.9,7.2,8.9c3.7,0,5.9-2.6,6.1-6.1h2.8
			c-0.5,5.3-3.8,8.5-9.2,8.5c-6.6,0-9.8-4.9-9.8-11.1s3.5-11.2,10.1-11.2c4.4,0,8.1,2.4,8.8,6.9H377.7z"/>
		<path class="st1" d="M383.7,84.6h2.5v8.1h0.1c0.8-1.9,3-2.6,4.9-2.6c4,0,5.3,2.3,5.3,5.6v10.1h-2.5V95.4c0-1.9-1.2-3.1-3.1-3.1
			c-3.1,0-4.6,2.1-4.6,4.8v8.7h-2.5L383.7,84.6L383.7,84.6z"/>
		<path class="st1" d="M413.8,105.8c-0.5,0.3-1,0.4-1.8,0.4c-1.3,0-2.1-0.7-2.1-2.4c-1.4,1.6-3.3,2.4-5.4,2.4
			c-2.8,0-5.1-1.2-5.1-4.3c0-3.5,2.6-4.2,5.2-4.7c2.8-0.5,5.2-0.4,5.2-2.3c0-2.2-1.8-2.6-3.4-2.6c-2.1,0-3.7,0.6-3.8,2.9h-2.5
			c0.1-3.8,3.1-5.1,6.5-5.1c2.8,0,5.8,0.6,5.8,4.2v7.9c0,1.2,0,1.7,0.8,1.7c0.2,0,0.5,0,0.8-0.1L413.8,105.8L413.8,105.8z
			 M409.7,97.9c-1,0.7-2.9,0.7-4.6,1c-1.7,0.3-3.1,0.9-3.1,2.8c0,1.7,1.4,2.3,3,2.3c3.3,0,4.7-2.1,4.7-3.5V97.9z"/>
		<path class="st1" d="M416.2,90.4h2.4v2.4h0.1c1.1-1.9,2.8-2.8,5-2.8c4,0,5.3,2.3,5.3,5.6v10.1h-2.5V95.4c0-1.9-1.2-3.1-3.1-3.1
			c-3.1,0-4.6,2.1-4.6,4.8v8.7h-2.5L416.2,90.4L416.2,90.4z"/>
		<path class="st1" d="M445.9,104.5c0,5-2.3,7.6-7.1,7.6c-2.9,0-6.2-1.2-6.4-4.5h2.5c0.1,1.9,2.3,2.5,4,2.5c3.3,0,4.6-2.4,4.6-5.8
			v-1h-0.1c-0.8,1.9-2.9,2.8-4.8,2.8c-4.6,0-6.9-3.6-6.9-7.8c0-3.6,1.8-8.1,7.1-8.1c1.9,0,3.7,0.9,4.6,2.6h0v-2.2h2.4L445.9,104.5
			L445.9,104.5z M443.4,97.8c0-2.7-1.2-5.5-4.4-5.5s-4.6,2.6-4.6,5.6c0,2.8,1,5.9,4.4,5.9S443.4,100.7,443.4,97.8z"/>
		<path class="st1" d="M462.8,101c-0.7,3.4-3.1,5.2-6.6,5.2c-4.9,0-7.2-3.4-7.4-8.1c0-4.6,3-8,7.2-8c5.5,0,7.1,5.1,7,8.8h-11.5
			c-0.1,2.7,1.4,5.1,4.8,5.1c2.1,0,3.5-1,4-3L462.8,101L462.8,101z M460.3,96.7c-0.1-2.4-1.9-4.4-4.4-4.4c-2.6,0-4.2,2-4.4,4.4
			H460.3L460.3,96.7z"/>
		<path class="st1" d="M489.3,91c-0.6-3-3-4.5-6-4.5c-5.1,0-7.2,4.2-7.2,8.6c0,4.9,2.1,8.9,7.2,8.9c3.7,0,5.9-2.6,6.1-6.1h2.8
			c-0.5,5.3-3.8,8.5-9.2,8.5c-6.6,0-9.8-4.9-9.8-11.1s3.5-11.2,10.1-11.2c4.4,0,8.1,2.4,8.8,6.9H489.3L489.3,91z"/>
		<path class="st1" d="M508.8,105.8c-0.5,0.3-1,0.4-1.8,0.4c-1.3,0-2.1-0.7-2.1-2.4c-1.4,1.6-3.3,2.4-5.4,2.4
			c-2.8,0-5.1-1.2-5.1-4.3c0-3.5,2.6-4.2,5.2-4.7c2.8-0.5,5.2-0.4,5.2-2.3c0-2.2-1.8-2.6-3.4-2.6c-2.1,0-3.7,0.6-3.8,2.9h-2.5
			c0.1-3.8,3.1-5.1,6.5-5.1c2.8,0,5.8,0.6,5.8,4.2v7.9c0,1.2,0,1.7,0.8,1.7c0.2,0,0.5,0,0.8-0.1L508.8,105.8L508.8,105.8z
			 M504.7,97.9c-1,0.7-2.9,0.7-4.6,1c-1.7,0.3-3.1,0.9-3.1,2.8c0,1.7,1.4,2.3,3,2.3c3.3,0,4.7-2.1,4.7-3.5V97.9z"/>
		<path class="st1" d="M511.1,90.4h2.4v2.4h0.1c1.1-1.9,2.8-2.8,5-2.8c4,0,5.3,2.3,5.3,5.6v10.1h-2.5V95.4c0-1.9-1.2-3.1-3.1-3.1
			c-3.1,0-4.6,2.1-4.6,4.8v8.7h-2.5L511.1,90.4L511.1,90.4z"/>
		<path class="st1" d="M541.2,105.8c-0.5,0.3-1,0.4-1.8,0.4c-1.3,0-2.2-0.7-2.2-2.4c-1.4,1.6-3.3,2.4-5.4,2.4
			c-2.8,0-5.1-1.2-5.1-4.3c0-3.5,2.6-4.2,5.2-4.7c2.8-0.5,5.2-0.4,5.2-2.3c0-2.2-1.8-2.6-3.4-2.6c-2.1,0-3.7,0.6-3.8,2.9h-2.5
			c0.2-3.8,3.1-5.1,6.5-5.1c2.8,0,5.8,0.6,5.8,4.2v7.9c0,1.2,0,1.7,0.8,1.7c0.2,0,0.5,0,0.8-0.1V105.8L541.2,105.8z M537.1,97.9
			c-1,0.7-2.9,0.7-4.6,1c-1.7,0.3-3.1,0.9-3.1,2.8c0,1.7,1.4,2.3,3,2.3c3.3,0,4.7-2.1,4.7-3.5V97.9z"/>
		<path class="st1" d="M557.2,105.8h-2.5v-2.1h-0.1c-0.8,1.7-2.8,2.4-4.9,2.4c-4.7,0-7.1-3.8-7.1-8.1s2.3-8,7-8c1.6,0,3.8,0.6,5,2.4
			h0.1v-7.9h2.5V105.8z M550.1,104c3.4,0,4.7-2.9,4.7-5.8c0-3-1.4-5.8-4.8-5.8s-4.6,2.9-4.6,6S546.8,104,550.1,104L550.1,104z"/>
		<path class="st1" d="M574.6,105.8c-0.5,0.3-1,0.4-1.8,0.4c-1.3,0-2.2-0.7-2.2-2.4c-1.4,1.6-3.3,2.4-5.4,2.4
			c-2.8,0-5.1-1.2-5.1-4.3c0-3.5,2.6-4.2,5.2-4.7c2.8-0.5,5.2-0.4,5.2-2.3c0-2.2-1.8-2.6-3.4-2.6c-2.1,0-3.7,0.6-3.8,2.9h-2.5
			c0.2-3.8,3.1-5.1,6.5-5.1c2.8,0,5.8,0.6,5.8,4.2v7.9c0,1.2,0,1.7,0.8,1.7c0.2,0,0.5,0,0.8-0.1V105.8L574.6,105.8z M570.5,97.9
			c-1,0.7-2.9,0.7-4.6,1c-1.7,0.3-3.1,0.9-3.1,2.8c0,1.7,1.4,2.3,3,2.3c3.3,0,4.7-2.1,4.7-3.5L570.5,97.9L570.5,97.9z"/>
	</g>
</g>
</svg>
